<svg xmlns="http://www.w3.org/2000/svg" width="20" height="20" viewBox="0 0 26 25" fill="none">
  <path d="M10.0521 4.16667C10.2673 3.55674 10.6664 3.02858 11.1944 2.65499C11.7224 2.2814 12.3533 2.08078 13 2.08078C13.6468 2.08078 14.2777 2.2814 14.8057 2.65499C15.3336 3.02858 15.7327 3.55674 15.948 4.16667M21.8542 6.25H4.14587M19.6386 16.0417C19.4542 18.8062 19.3625 20.1885 18.4615 21.0312C17.5605 21.875 16.175 21.875 13.4032 21.875H12.5969C9.82608 21.875 8.44067 21.875 7.53858 21.0312C6.63754 20.1885 6.54587 18.8062 6.3615 16.0417L5.88233 8.85417M20.1177 8.85417L19.9094 11.9792M10.3959 11.4583L10.9167 16.6667M15.6042 11.4583L15.0834 16.6667" stroke="black" stroke-width="1.5625" stroke-linecap="round"/>
</svg>