<svg xmlns="http://www.w3.org/2000/svg" width="26" height="25" viewBox="0 0 26 25" fill="none">
  <g clip-path="url(#clip0_325_124)">
    <mask id="mask0_325_124" style="mask-type:luminance" maskUnits="userSpaceOnUse" x="0" y="0" width="26" height="25">
      <path d="M0.5 0H25.5V25H0.5V0Z" fill="white"/>
    </mask>
    <g mask="url(#mask0_325_124)">
      <path d="M21.0511 11.3844C21.4645 12.9282 21.4254 14.5582 20.9385 16.0804C20.4516 17.6026 19.5375 18.9528 18.3049 19.9701C17.0723 20.9875 15.5733 21.629 13.9864 21.8185C12.3995 22.0079 10.7916 21.7372 9.35419 21.0385M19.6292 8.38542L18.8927 7.64896C17.3867 6.13955 15.3595 5.26483 13.2281 5.20481C11.0967 5.14479 9.02342 5.90404 7.43487 7.3263C5.84632 8.74856 4.86337 10.7256 4.68831 12.8507C4.51325 14.9757 5.15939 17.0869 6.49377 18.75M19.6292 8.38542H15.2094M19.6292 8.38542V3.96771" stroke="black" stroke-width="1.5625" stroke-linecap="round" stroke-linejoin="round"/>
    </g>
  </g>
  <defs>
    <clipPath id="clip0_325_124">
      <rect width="25" height="25" fill="white" transform="translate(0.5)"/>
    </clipPath>
  </defs>
</svg>